<svg width="380" height="44" viewBox="0 0 380 44" fill="none" xmlns="http://www.w3.org/2000/svg">
<path d="M0.415547 43V0.999997H10.1355V35.08H31.1955V43H0.415547ZM54.8177 43.72C48.8577 43.72 44.1977 42.06 40.8377 38.74C37.4777 35.42 35.7977 30.68 35.7977 24.52V0.999997H45.5177V24.16C45.5177 28.16 46.3377 31.04 47.9777 32.8C49.6177 34.56 51.9177 35.44 54.8777 35.44C57.8377 35.44 60.1377 34.56 61.7777 32.8C63.4177 31.04 64.2377 28.16 64.2377 24.16V0.999997H73.8377V24.52C73.8377 30.68 72.1577 35.42 68.7977 38.74C65.4377 42.06 60.7777 43.72 54.8177 43.72ZM83.4429 43V0.999997H102.523C107.083 0.999997 111.103 1.88 114.583 3.64C118.063 5.36 120.783 7.78 122.743 10.9C124.703 14.02 125.683 17.72 125.683 22C125.683 26.24 124.703 29.94 122.743 33.1C120.783 36.22 118.063 38.66 114.583 40.42C111.103 42.14 107.083 43 102.523 43H83.4429ZM93.1629 35.02H102.043C104.843 35.02 107.263 34.5 109.303 33.46C111.383 32.38 112.983 30.86 114.103 28.9C115.263 26.94 115.843 24.64 115.843 22C115.843 19.32 115.263 17.02 114.103 15.1C112.983 13.14 111.383 11.64 109.303 10.6C107.263 9.52 104.843 8.98 102.043 8.98H93.1629V35.02ZM126.907 43L145.627 0.999997H155.227L174.007 43H163.807L148.447 5.92H152.287L136.867 43H126.907ZM136.267 34L138.847 26.62H160.447L163.087 34H136.267ZM192.165 43.72C188.805 43.72 185.585 43.28 182.505 42.4C179.425 41.48 176.945 40.3 175.065 38.86L178.365 31.54C180.165 32.82 182.285 33.88 184.725 34.72C187.205 35.52 189.705 35.92 192.225 35.92C194.145 35.92 195.685 35.74 196.845 35.38C198.045 34.98 198.925 34.44 199.485 33.76C200.045 33.08 200.325 32.3 200.325 31.42C200.325 30.3 199.885 29.42 199.005 28.78C198.125 28.1 196.965 27.56 195.525 27.16C194.085 26.72 192.485 26.32 190.725 25.96C189.005 25.56 187.265 25.08 185.505 24.52C183.785 23.96 182.205 23.24 180.765 22.36C179.325 21.48 178.145 20.32 177.225 18.88C176.345 17.44 175.905 15.6 175.905 13.36C175.905 10.96 176.545 8.78 177.825 6.82C179.145 4.82 181.105 3.24 183.705 2.08C186.345 0.879999 189.645 0.279999 193.605 0.279999C196.245 0.279999 198.845 0.599999 201.405 1.24C203.965 1.84 206.225 2.76 208.185 4L205.185 11.38C203.225 10.26 201.265 9.44 199.305 8.92C197.345 8.36 195.425 8.08 193.545 8.08C191.665 8.08 190.125 8.3 188.925 8.74C187.725 9.18 186.865 9.76 186.345 10.48C185.825 11.16 185.565 11.96 185.565 12.88C185.565 13.96 186.005 14.84 186.885 15.52C187.765 16.16 188.925 16.68 190.365 17.08C191.805 17.48 193.385 17.88 195.105 18.28C196.865 18.68 198.605 19.14 200.325 19.66C202.085 20.18 203.685 20.88 205.125 21.76C206.565 22.64 207.725 23.8 208.605 25.24C209.525 26.68 209.985 28.5 209.985 30.7C209.985 33.06 209.325 35.22 208.005 37.18C206.685 39.14 204.705 40.72 202.065 41.92C199.465 43.12 196.165 43.72 192.165 43.72ZM224.741 43V8.92H211.301V0.999997H247.901V8.92H234.461V43H224.741ZM272.944 43.72C269.624 43.72 266.544 43.18 263.704 42.1C260.904 41.02 258.464 39.5 256.384 37.54C254.344 35.58 252.744 33.28 251.584 30.64C250.464 28 249.904 25.12 249.904 22C249.904 18.88 250.464 16 251.584 13.36C252.744 10.72 254.364 8.42 256.444 6.46C258.524 4.5 260.964 2.98 263.764 1.9C266.564 0.819998 269.604 0.279999 272.884 0.279999C276.204 0.279999 279.244 0.819998 282.004 1.9C284.804 2.98 287.224 4.5 289.264 6.46C291.344 8.42 292.964 10.72 294.124 13.36C295.284 15.96 295.864 18.84 295.864 22C295.864 25.12 295.284 28.02 294.124 30.7C292.964 33.34 291.344 35.64 289.264 37.6C287.224 39.52 284.804 41.02 282.004 42.1C279.244 43.18 276.224 43.72 272.944 43.72ZM272.884 35.44C274.764 35.44 276.484 35.12 278.044 34.48C279.644 33.84 281.044 32.92 282.244 31.72C283.444 30.52 284.364 29.1 285.004 27.46C285.684 25.82 286.024 24 286.024 22C286.024 20 285.684 18.18 285.004 16.54C284.364 14.9 283.444 13.48 282.244 12.28C281.084 11.08 279.704 10.16 278.104 9.52C276.504 8.88 274.764 8.56 272.884 8.56C271.004 8.56 269.264 8.88 267.664 9.52C266.104 10.16 264.724 11.08 263.524 12.28C262.324 13.48 261.384 14.9 260.704 16.54C260.064 18.18 259.744 20 259.744 22C259.744 23.96 260.064 25.78 260.704 27.46C261.384 29.1 262.304 30.52 263.464 31.72C264.664 32.92 266.064 33.84 267.664 34.48C269.264 35.12 271.004 35.44 272.884 35.44ZM303.169 43V0.999997H321.349C325.109 0.999997 328.349 1.62 331.069 2.86C333.789 4.06 335.889 5.8 337.369 8.08C338.849 10.36 339.589 13.08 339.589 16.24C339.589 19.36 338.849 22.06 337.369 24.34C335.889 26.58 333.789 28.3 331.069 29.5C328.349 30.7 325.109 31.3 321.349 31.3H308.569L312.889 27.04V43H303.169ZM329.869 43L319.369 27.76H329.749L340.369 43H329.869ZM312.889 28.12L308.569 23.56H320.809C323.809 23.56 326.049 22.92 327.529 21.64C329.009 20.32 329.749 18.52 329.749 16.24C329.749 13.92 329.009 12.12 327.529 10.84C326.049 9.56 323.809 8.92 320.809 8.92H308.569L312.889 4.3V28.12ZM356.231 17.92H376.451V25.48H356.231V17.92ZM356.951 35.2H379.811V43H347.291V0.999997H379.031V8.8H356.951V35.2Z" fill="#071629"/>
</svg>
